<svg xmlns="http://www.w3.org/2000/svg" viewBox="0 0 860 600" width="860" height="600" role="img" aria-labelledby="ct cd">
<title id="ct">Homes cost 27x a year's rent in San Francisco, CA, 13x in Chicago, IL</title>
<desc id="cd">Price-to-rent ratio (typical home value divided by 12 months of typical rent) for the 20 largest US metros, August 2026 versus Aug 2025. Source: Zillow Research.</desc>
<style>
text{font-family:-apple-system,BlinkMacSystemFont,'Segoe UI',Helvetica,Arial,sans-serif;font-variant-numeric:tabular-nums}
.r{opacity:0;animation:in .45s ease-out forwards}
@keyframes in{from{opacity:0;transform:translateX(-6px)}to{opacity:1;transform:none}}
@media (prefers-reduced-motion:reduce){.r{animation:none;opacity:1}}
</style>
<rect width="860" height="600" rx="12" fill="#ffffff"/>
<text x="24" y="40" font-size="19" font-weight="600" fill="#1f2328">Homes cost 27x a year's rent in San Francisco, CA, 13x in Chicago, IL</text>
<text x="24" y="64" font-size="13" fill="#59636e">Price-to-rent ratio: typical home value ÷ 12 months of typical rent. Higher means renting is relatively cheaper.</text>
<circle cx="30" cy="86" r="5" fill="#1a7f37"/>
<text x="42" y="90" font-size="12" fill="#1f2328">Aug 2026</text>
<circle cx="112" cy="86" r="4.5" fill="none" stroke="#818b98" stroke-width="1.6"/>
<text x="124" y="90" font-size="12" fill="#59636e">Aug 2025</text>
<line x1="230.0" y1="104" x2="230.0" y2="546" stroke="#eaeef2"/>
<text x="230.0" y="98" font-size="11" fill="#59636e" text-anchor="middle">10</text>
<line x1="370.0" y1="104" x2="370.0" y2="546" stroke="#eaeef2"/>
<text x="370.0" y="98" font-size="11" fill="#59636e" text-anchor="middle">15</text>
<line x1="510.0" y1="104" x2="510.0" y2="546" stroke="#eaeef2"/>
<text x="510.0" y="98" font-size="11" fill="#59636e" text-anchor="middle">20</text>
<line x1="650.0" y1="104" x2="650.0" y2="546" stroke="#eaeef2"/>
<text x="650.0" y="98" font-size="11" fill="#59636e" text-anchor="middle">25</text>
<line x1="790.0" y1="104" x2="790.0" y2="546" stroke="#eaeef2"/>
<text x="790.0" y="98" font-size="11" fill="#59636e" text-anchor="middle">30</text>
<g class="r" style="animation-delay:0.15s">
<text x="216" y="122" font-size="12.5" fill="#1f2328" text-anchor="end">San Francisco, CA</text>
<line x1="783.3" y1="118" x2="718.9" y2="118" stroke="#d0d7de" stroke-width="2"/>
<circle cx="783.3" cy="118" r="4.5" fill="#ffffff" stroke="#818b98" stroke-width="1.6"/>
<circle cx="718.9" cy="118" r="5" fill="#1a7f37"/>
<text x="806" y="122" font-size="12.5" fill="#1f2328">27.5</text>
</g>
<g class="r" style="animation-delay:0.19s">
<text x="216" y="144" font-size="12.5" fill="#1f2328" text-anchor="end">Los Angeles, CA</text>
<line x1="708.8" y1="140" x2="706.0" y2="140" stroke="#d0d7de" stroke-width="2"/>
<circle cx="708.8" cy="140" r="4.5" fill="#ffffff" stroke="#818b98" stroke-width="1.6"/>
<circle cx="706.0" cy="140" r="5" fill="#1a7f37"/>
<text x="806" y="144" font-size="12.5" fill="#1f2328">27.0</text>
</g>
<g class="r" style="animation-delay:0.23s">
<text x="216" y="166" font-size="12.5" fill="#1f2328" text-anchor="end">Seattle, WA</text>
<line x1="718.9" y1="162" x2="695.1" y2="162" stroke="#d0d7de" stroke-width="2"/>
<circle cx="718.9" cy="162" r="4.5" fill="#ffffff" stroke="#818b98" stroke-width="1.6"/>
<circle cx="695.1" cy="162" r="5" fill="#1a7f37"/>
<text x="806" y="166" font-size="12.5" fill="#1f2328">26.6</text>
</g>
<g class="r" style="animation-delay:0.27s">
<text x="216" y="188" font-size="12.5" fill="#1f2328" text-anchor="end">San Diego, CA</text>
<line x1="686.4" y1="184" x2="675.5" y2="184" stroke="#d0d7de" stroke-width="2"/>
<circle cx="686.4" cy="184" r="4.5" fill="#ffffff" stroke="#818b98" stroke-width="1.6"/>
<circle cx="675.5" cy="184" r="5" fill="#1a7f37"/>
<text x="806" y="188" font-size="12.5" fill="#1f2328">25.9</text>
</g>
<g class="r" style="animation-delay:0.31s">
<text x="216" y="210" font-size="12.5" fill="#1f2328" text-anchor="end">Denver, CO</text>
<line x1="638.5" y1="206" x2="629.3" y2="206" stroke="#d0d7de" stroke-width="2"/>
<circle cx="638.5" cy="206" r="4.5" fill="#ffffff" stroke="#818b98" stroke-width="1.6"/>
<circle cx="629.3" cy="206" r="5" fill="#1a7f37"/>
<text x="806" y="210" font-size="12.5" fill="#1f2328">24.3</text>
</g>
<g class="r" style="animation-delay:0.35s">
<text x="216" y="232" font-size="12.5" fill="#1f2328" text-anchor="end">Phoenix, AZ</text>
<line x1="560.7" y1="228" x2="548.9" y2="228" stroke="#d0d7de" stroke-width="2"/>
<circle cx="560.7" cy="228" r="4.5" fill="#ffffff" stroke="#818b98" stroke-width="1.6"/>
<circle cx="548.9" cy="228" r="5" fill="#1a7f37"/>
<text x="806" y="232" font-size="12.5" fill="#1f2328">21.4</text>
</g>
<g class="r" style="animation-delay:0.39s">
<text x="216" y="254" font-size="12.5" fill="#1f2328" text-anchor="end">Boston, MA</text>
<line x1="508.0" y1="250" x2="506.9" y2="250" stroke="#d0d7de" stroke-width="2"/>
<circle cx="508.0" cy="250" r="4.5" fill="#ffffff" stroke="#818b98" stroke-width="1.6"/>
<circle cx="506.9" cy="250" r="5" fill="#1a7f37"/>
<text x="806" y="254" font-size="12.5" fill="#1f2328">19.9</text>
</g>
<g class="r" style="animation-delay:0.43s">
<text x="216" y="276" font-size="12.5" fill="#1f2328" text-anchor="end">Washington, DC</text>
<line x1="503.0" y1="272" x2="499.9" y2="272" stroke="#d0d7de" stroke-width="2"/>
<circle cx="503.0" cy="272" r="4.5" fill="#ffffff" stroke="#818b98" stroke-width="1.6"/>
<circle cx="499.9" cy="272" r="5" fill="#1a7f37"/>
<text x="806" y="276" font-size="12.5" fill="#1f2328">19.6</text>
</g>
<g class="r" style="animation-delay:0.47s">
<text x="216" y="298" font-size="12.5" fill="#1f2328" text-anchor="end">Riverside, CA</text>
<line x1="497.4" y1="294" x2="484.0" y2="294" stroke="#d0d7de" stroke-width="2"/>
<circle cx="497.4" cy="294" r="4.5" fill="#ffffff" stroke="#818b98" stroke-width="1.6"/>
<circle cx="484.0" cy="294" r="5" fill="#1a7f37"/>
<text x="806" y="298" font-size="12.5" fill="#1f2328">19.1</text>
</g>
<g class="r" style="animation-delay:0.51s">
<text x="216" y="320" font-size="12.5" fill="#1f2328" text-anchor="end">Minneapolis, MN</text>
<line x1="486.5" y1="316" x2="477.8" y2="316" stroke="#d0d7de" stroke-width="2"/>
<circle cx="486.5" cy="316" r="4.5" fill="#ffffff" stroke="#818b98" stroke-width="1.6"/>
<circle cx="477.8" cy="316" r="5" fill="#1a7f37"/>
<text x="806" y="320" font-size="12.5" fill="#1f2328">18.9</text>
</g>
<g class="r" style="animation-delay:0.55s">
<text x="216" y="342" font-size="12.5" fill="#1f2328" text-anchor="end">Dallas, TX</text>
<line x1="470.8" y1="338" x2="456.8" y2="338" stroke="#d0d7de" stroke-width="2"/>
<circle cx="470.8" cy="338" r="4.5" fill="#ffffff" stroke="#818b98" stroke-width="1.6"/>
<circle cx="456.8" cy="338" r="5" fill="#1a7f37"/>
<text x="806" y="342" font-size="12.5" fill="#1f2328">18.1</text>
</g>
<g class="r" style="animation-delay:0.59s">
<text x="216" y="364" font-size="12.5" fill="#1f2328" text-anchor="end">Baltimore, MD</text>
<line x1="439.2" y1="360" x2="429.4" y2="360" stroke="#d0d7de" stroke-width="2"/>
<circle cx="439.2" cy="360" r="4.5" fill="#ffffff" stroke="#818b98" stroke-width="1.6"/>
<circle cx="429.4" cy="360" r="5" fill="#1a7f37"/>
<text x="806" y="364" font-size="12.5" fill="#1f2328">17.1</text>
</g>
<g class="r" style="animation-delay:0.63s">
<text x="216" y="386" font-size="12.5" fill="#1f2328" text-anchor="end">Philadelphia, PA</text>
<line x1="430.2" y1="382" x2="425.7" y2="382" stroke="#d0d7de" stroke-width="2"/>
<circle cx="430.2" cy="382" r="4.5" fill="#ffffff" stroke="#818b98" stroke-width="1.6"/>
<circle cx="425.7" cy="382" r="5" fill="#1a7f37"/>
<text x="806" y="386" font-size="12.5" fill="#1f2328">17.0</text>
</g>
<g class="r" style="animation-delay:0.67s">
<text x="216" y="408" font-size="12.5" fill="#1f2328" text-anchor="end">Atlanta, GA</text>
<line x1="442.5" y1="404" x2="425.2" y2="404" stroke="#d0d7de" stroke-width="2"/>
<circle cx="442.5" cy="404" r="4.5" fill="#ffffff" stroke="#818b98" stroke-width="1.6"/>
<circle cx="425.2" cy="404" r="5" fill="#1a7f37"/>
<text x="806" y="408" font-size="12.5" fill="#1f2328">17.0</text>
</g>
<g class="r" style="animation-delay:0.71s">
<text x="216" y="430" font-size="12.5" fill="#1f2328" text-anchor="end">New York, NY</text>
<line x1="421.8" y1="426" x2="424.6" y2="426" stroke="#d0d7de" stroke-width="2"/>
<circle cx="421.8" cy="426" r="4.5" fill="#ffffff" stroke="#818b98" stroke-width="1.6"/>
<circle cx="424.6" cy="426" r="5" fill="#1a7f37"/>
<text x="806" y="430" font-size="12.5" fill="#1f2328">16.9</text>
</g>
<g class="r" style="animation-delay:0.75s">
<text x="216" y="452" font-size="12.5" fill="#1f2328" text-anchor="end">Houston, TX</text>
<line x1="391.8" y1="448" x2="383.2" y2="448" stroke="#d0d7de" stroke-width="2"/>
<circle cx="391.8" cy="448" r="4.5" fill="#ffffff" stroke="#818b98" stroke-width="1.6"/>
<circle cx="383.2" cy="448" r="5" fill="#1a7f37"/>
<text x="806" y="452" font-size="12.5" fill="#1f2328">15.5</text>
</g>
<g class="r" style="animation-delay:0.79s">
<text x="216" y="474" font-size="12.5" fill="#1f2328" text-anchor="end">Tampa, FL</text>
<line x1="373.9" y1="470" x2="368.3" y2="470" stroke="#d0d7de" stroke-width="2"/>
<circle cx="373.9" cy="470" r="4.5" fill="#ffffff" stroke="#818b98" stroke-width="1.6"/>
<circle cx="368.3" cy="470" r="5" fill="#1a7f37"/>
<text x="806" y="474" font-size="12.5" fill="#1f2328">14.9</text>
</g>
<g class="r" style="animation-delay:0.83s">
<text x="216" y="496" font-size="12.5" fill="#1f2328" text-anchor="end">Miami, FL</text>
<line x1="375.0" y1="492" x2="366.4" y2="492" stroke="#d0d7de" stroke-width="2"/>
<circle cx="375.0" cy="492" r="4.5" fill="#ffffff" stroke="#818b98" stroke-width="1.6"/>
<circle cx="366.4" cy="492" r="5" fill="#1a7f37"/>
<text x="806" y="496" font-size="12.5" fill="#1f2328">14.9</text>
</g>
<g class="r" style="animation-delay:0.87s">
<text x="216" y="518" font-size="12.5" fill="#1f2328" text-anchor="end">Detroit, MI</text>
<line x1="365.8" y1="514" x2="359.1" y2="514" stroke="#d0d7de" stroke-width="2"/>
<circle cx="365.8" cy="514" r="4.5" fill="#ffffff" stroke="#818b98" stroke-width="1.6"/>
<circle cx="359.1" cy="514" r="5" fill="#1a7f37"/>
<text x="806" y="518" font-size="12.5" fill="#1f2328">14.6</text>
</g>
<g class="r" style="animation-delay:0.91s">
<text x="216" y="540" font-size="12.5" fill="#1f2328" text-anchor="end">Chicago, IL</text>
<line x1="327.2" y1="536" x2="327.2" y2="536" stroke="#d0d7de" stroke-width="2"/>
<circle cx="327.2" cy="536" r="4.5" fill="#ffffff" stroke="#818b98" stroke-width="1.6"/>
<circle cx="327.2" cy="536" r="5" fill="#1a7f37"/>
<text x="806" y="540" font-size="12.5" fill="#1f2328">13.5</text>
</g>
<text x="24" y="578" font-size="11" fill="#59636e">Source: Zillow Research (ZHVI, ZORI), August 2026. Rebuilt monthly by a GitHub Action with schema and row-count checks.</text>
</svg>
